<svg xmlns="http://www.w3.org/2000/svg" viewBox="0 0 100 100" x="0px" y="0px">
    <title>full-screen-icon</title>
    <g data-name="Layer 33">
        <path d="M81.55,30.14a12,12,0,0,0-11.92-10H30.27a12.12,12.12,0,0,0-12,10.21,119.54,119.54,0,0,0,0,39.25,12.12,12.12,0,0,0,12,10.21H69.75a12.13,12.13,0,0,0,12-10.1A116.63,116.63,0,0,0,81.55,30.14ZM78.74,69.23a9.14,9.14,0,0,1-9,7.61H30.27a9.13,9.13,0,0,1-9-7.7,116.57,116.57,0,0,1,0-38.27,9.13,9.13,0,0,1,9-7.7H69.63a9,9,0,0,1,9,7.48A113.64,113.64,0,0,1,78.74,69.23Z"/>
        <path d="M74.36,64.43h0a1.25,1.25,0,0,0-1.25,1.24l0,2.42L63.14,57.87a1.25,1.25,0,1,0-1.79,1.74l9.79,10.07-2.06,0a1.25,1.25,0,0,0,0,2.5h0l5.22,0a1.18,1.18,0,0,0,.21,0,1.27,1.27,0,0,0,.27-.06,1.22,1.22,0,0,0,.18-.12.64.64,0,0,0,.34-.32,1.23,1.23,0,0,0,.15-.22,1.28,1.28,0,0,0,0-.22,1.19,1.19,0,0,0,.05-.25l0-5.22A1.25,1.25,0,0,0,74.36,64.43Z"/>
        <path d="M57.44,43H42.56a3.4,3.4,0,0,0-3.39,3.4v7.28A3.4,3.4,0,0,0,42.56,57H57.44a3.4,3.4,0,0,0,3.39-3.39V46.36A3.4,3.4,0,0,0,57.44,43Zm.89,10.68a.9.9,0,0,1-.89.89H42.56a.9.9,0,0,1-.89-.89V46.36a.9.9,0,0,1,.89-.9H57.44a.9.9,0,0,1,.89.9Z"/>
        <path d="M62.24,42.52a1.25,1.25,0,0,0,.88-.37L72,33.32l0,1.93a1.25,1.25,0,0,0,1.25,1.24h0a1.25,1.25,0,0,0,1.24-1.26l0-4.91a1.16,1.16,0,0,0,0-.14,1.23,1.23,0,0,0-.06-.32h0a1.22,1.22,0,0,0-.15-.23,1.26,1.26,0,0,0-.11-.16h0a1.26,1.26,0,0,0-.22-.15,1.22,1.22,0,0,0-.17-.12h0a1.23,1.23,0,0,0-.33-.07l-.13,0-4.91,0h0a1.25,1.25,0,0,0,0,2.5l1.93,0-8.83,8.83a1.25,1.25,0,0,0,.88,2.13Z"/>
        <path d="M29.81,31.55l1.93,0a1.25,1.25,0,0,0,0-2.5h0l-4.91,0-.13,0a1.23,1.23,0,0,0-.33.07h0a1.22,1.22,0,0,0-.17.12,1.26,1.26,0,0,0-.22.15h0a1.26,1.26,0,0,0-.11.16,1.22,1.22,0,0,0-.15.23h0a1.23,1.23,0,0,0-.06.32,1.17,1.17,0,0,0,0,.15l0,4.91a1.25,1.25,0,0,0,1.24,1.26h0A1.25,1.25,0,0,0,28,35.25l0-1.93,8.85,8.85a1.25,1.25,0,0,0,1.77-1.77Z"/>
        <path d="M36.89,57.85l-8.83,8.83,0-1.93a1.22,1.22,0,0,0-1.26-1.24,1.25,1.25,0,0,0-1.24,1.26l0,4.91a1.16,1.16,0,0,0,0,.15,1.23,1.23,0,0,0,.06.31h0a1.22,1.22,0,0,0,.16.24,1.26,1.26,0,0,0,.1.15h0a1.26,1.26,0,0,0,.23.16,1.21,1.21,0,0,0,.16.11h0a1.23,1.23,0,0,0,.34.07l.13,0,4.91,0h0a1.25,1.25,0,0,0,0-2.5l-1.93,0,8.83-8.83a1.25,1.25,0,0,0-1.77-1.77Z"/>
    </g>
</svg>