<svg width="26" height="26" viewBox="0 0 26 26" fill="none" xmlns="http://www.w3.org/2000/svg">
<g clip-path="url(#clip0_2042_443)">
<path d="M3.25 10.6753C3.25 9.56599 4.14929 8.66671 5.25861 8.66671C6.01942 8.66671 6.71492 8.23686 7.05517 7.55637L7.94444 5.77782C8.10811 5.45048 8.18994 5.28682 8.29061 5.14972C8.59732 4.73198 9.05421 4.44961 9.56501 4.3621C9.73265 4.33337 9.91563 4.33337 10.2816 4.33337H15.7184C16.0844 4.33337 16.2674 4.33337 16.435 4.3621C16.9458 4.44961 17.4027 4.73198 17.7094 5.14972C17.8101 5.28682 17.8919 5.45048 18.0556 5.77782L18.9448 7.55638C19.2851 8.23686 19.9806 8.66671 20.7414 8.66671C21.8507 8.66671 22.75 9.56599 22.75 10.6753V16.0953C22.75 18.5094 22.75 19.7165 22.0955 20.5372C21.9554 20.7128 21.7961 20.8721 21.6205 21.0122C20.7997 21.6667 19.5927 21.6667 17.1786 21.6667H8.82143C6.40731 21.6667 5.20025 21.6667 4.37953 21.0122C4.2039 20.8721 4.04456 20.7128 3.90451 20.5372C3.25 19.7165 3.25 18.5094 3.25 16.0953V10.6753Z" stroke="#222222"/>
<circle cx="12.9998" cy="14.0833" r="3.83333" stroke="#222222"/>
</g>
<defs>
<clipPath id="clip0_2042_443">
<rect width="26" height="26" fill="white"/>
</clipPath>
</defs>
</svg>
