<svg width="26" height="26" viewBox="0 0 26 26" fill="none" xmlns="http://www.w3.org/2000/svg">
<path d="M5 5V4.5H4.5V5H5ZM12.6464 13.3536C12.8417 13.5488 13.1583 13.5488 13.3536 13.3536C13.5488 13.1583 13.5488 12.8417 13.3536 12.6464L13 13L12.6464 13.3536ZM5 11H5.5V5H5H4.5V11H5ZM5 5V5.5H11V5V4.5H5V5ZM5 5L4.64645 5.35355L12.6464 13.3536L13 13L13.3536 12.6464L5.35355 4.64645L5 5Z" fill="#222222"/>
<path d="M5 21V21.5H4.5V21H5ZM12.6464 12.6464C12.8417 12.4512 13.1583 12.4512 13.3536 12.6464C13.5488 12.8417 13.5488 13.1583 13.3536 13.3536L13 13L12.6464 12.6464ZM5 15H5.5V21H5H4.5V15H5ZM5 21V20.5H11V21V21.5H5V21ZM5 21L4.64645 20.6464L12.6464 12.6464L13 13L13.3536 13.3536L5.35355 21.3536L5 21Z" fill="#222222"/>
<path d="M21 5V4.5H21.5V5H21ZM13.3536 13.3536C13.1583 13.5488 12.8417 13.5488 12.6464 13.3536C12.4512 13.1583 12.4512 12.8417 12.6464 12.6464L13 13L13.3536 13.3536ZM21 11H20.5V5H21H21.5V11H21ZM21 5V5.5H15V5V4.5H21V5ZM21 5L21.3536 5.35355L13.3536 13.3536L13 13L12.6464 12.6464L20.6464 4.64645L21 5Z" fill="#222222"/>
<path d="M21 21V21.5H21.5V21H21ZM13.3536 12.6464C13.1583 12.4512 12.8417 12.4512 12.6464 12.6464C12.4512 12.8417 12.4512 13.1583 12.6464 13.3536L13 13L13.3536 12.6464ZM21 15H20.5V21H21H21.5V15H21ZM21 21V20.5H15V21V21.5H21V21ZM21 21L21.3536 20.6464L13.3536 12.6464L13 13L12.6464 13.3536L20.6464 21.3536L21 21Z" fill="#222222"/>
</svg>
