<svg width="26" height="26" viewBox="0 0 26 26" fill="none" xmlns="http://www.w3.org/2000/svg">
<g clip-path="url(#clip0_2311_212)">
<path d="M0.999999 8.5L0.823222 8.67678L0.646445 8.5L0.823222 8.32323L0.999999 8.5ZM8.5 25.25C8.36193 25.25 8.25 25.1381 8.25 25C8.25 24.8619 8.36193 24.75 8.5 24.75L8.5 25L8.5 25.25ZM8.5 16L8.32322 16.1768L0.823222 8.67678L0.999999 8.5L1.17678 8.32323L8.67678 15.8232L8.5 16ZM0.999999 8.5L0.823222 8.32323L8.32322 0.823224L8.5 1L8.67678 1.17678L1.17678 8.67678L0.999999 8.5ZM0.999999 8.5L0.999999 8.25L16.75 8.25L16.75 8.5L16.75 8.75L0.999999 8.75L0.999999 8.5ZM16.75 25L16.75 25.25L8.5 25.25L8.5 25L8.5 24.75L16.75 24.75L16.75 25ZM25 16.75L25.25 16.75C25.25 21.4444 21.4444 25.25 16.75 25.25L16.75 25L16.75 24.75C21.1683 24.75 24.75 21.1683 24.75 16.75L25 16.75ZM16.75 8.5L16.75 8.25C21.4444 8.25 25.25 12.0556 25.25 16.75L25 16.75L24.75 16.75C24.75 12.3317 21.1683 8.75 16.75 8.75L16.75 8.5Z" fill="#222222"/>
</g>
<defs>
<clipPath id="clip0_2311_212">
<rect width="26" height="26" fill="white"/>
</clipPath>
</defs>
</svg>
