<svg width="26" height="26" viewBox="0 0 26 26" fill="none" xmlns="http://www.w3.org/2000/svg">
<path d="M13.6318 3V2.5V3ZM14.4629 3.07031L14.6469 2.60541L14.6467 2.60533L14.4629 3.07031ZM14.9834 3.54199L15.4278 3.31292L15.4278 3.31287L14.9834 3.54199ZM15.1357 4.36133L15.6333 4.31165L15.1357 4.36133ZM15.4307 5.81836L15.0331 6.12154L15.0332 6.12167L15.4307 5.81836ZM16.3594 6.20312L16.426 6.69866L16.4262 6.69864L16.3594 6.20312ZM17.5977 5.38086L17.2811 4.99385L17.5977 5.38086ZM18.2861 4.90918L18.1342 4.43283L18.1341 4.43285L18.2861 4.90918ZM18.9873 4.94434L19.1861 4.48554L19.186 4.48551L18.9873 4.94434ZM19.625 5.48242L19.2714 5.83598L19.625 5.48242ZM20.5176 6.375L20.8711 6.02145L20.5176 6.375ZM21.0557 7.0127L21.5145 6.81409L21.5145 6.81392L21.0557 7.0127ZM21.0908 7.71387L21.5671 7.86612L21.5671 7.8659L21.0908 7.71387ZM20.6182 8.40137L21.0051 8.71807L20.6182 8.40137ZM19.7969 9.63965L19.3014 9.57247L19.3014 9.57288L19.7969 9.63965ZM20.1816 10.5684L19.8783 10.9659L19.8784 10.9659L20.1816 10.5684ZM21.6387 10.8633L21.6885 10.3658L21.6387 10.8633ZM22.459 11.0166L22.6885 10.5724L22.6883 10.5723L22.459 11.0166ZM22.9297 11.5371L23.3946 11.3532L23.3946 11.3532L22.9297 11.5371ZM23 12.3682H23.5H23ZM23 13.6318H23.5H23ZM22.9297 14.4629L23.3946 14.6469L23.3947 14.6467L22.9297 14.4629ZM22.458 14.9834L22.6871 15.4278L22.6871 15.4278L22.458 14.9834ZM21.6387 15.1357L21.6884 15.6333L21.6387 15.1357ZM20.1826 15.4307L19.8795 15.033L19.8795 15.033L20.1826 15.4307ZM19.7979 16.3594L19.3023 16.4262L19.3023 16.4262L19.7979 16.3594ZM20.6191 17.5977L21.0061 17.281L20.6191 17.5977ZM21.0908 18.2842L21.5671 18.1319L21.567 18.1317L21.0908 18.2842ZM21.0557 18.9863L21.5144 19.1852L21.5145 19.185L21.0557 18.9863ZM18.9873 21.0547L19.186 21.5135L19.1861 21.5135L18.9873 21.0547ZM18.2861 21.0898L18.1341 21.5662L18.1342 21.5662L18.2861 21.0898ZM17.5977 20.6182L17.9142 20.2312L17.5977 20.6182ZM16.3584 19.7959L16.4249 19.3003L16.4246 19.3003L16.3584 19.7959ZM15.4307 20.1807L15.0332 19.8774L15.0332 19.8774L15.4307 20.1807ZM15.1357 21.6377L14.6382 21.588L15.1357 21.6377ZM14.9834 22.458L15.4278 22.6872L15.4279 22.687L14.9834 22.458ZM14.4629 22.9297L14.6468 23.3946L14.6469 23.3946L14.4629 22.9297ZM12.3682 23V23.5V23ZM11.5371 22.9297L11.3532 23.3946L11.3532 23.3946L11.5371 22.9297ZM11.0166 22.459L10.5723 22.6883L10.5724 22.6885L11.0166 22.459ZM10.8633 21.6387L10.3658 21.6885V21.6885L10.8633 21.6387ZM10.5684 20.1816L10.9659 19.8784L10.9659 19.8783L10.5684 20.1816ZM9.63965 19.7969L9.57288 19.3014L9.57247 19.3014L9.63965 19.7969ZM8.40137 20.6182L8.71807 21.0051L8.40137 20.6182ZM7.71387 21.0908L7.8659 21.5671L7.86612 21.5671L7.71387 21.0908ZM7.0127 21.0557L6.81392 21.5145L6.81409 21.5145L7.0127 21.0557ZM5.48242 19.625L5.12887 19.9786L5.48242 19.625ZM4.94434 18.9873L4.48551 19.186L4.48554 19.1861L4.94434 18.9873ZM4.90918 18.2861L4.43285 18.1341L4.43283 18.1342L4.90918 18.2861ZM5.38086 17.5977L4.99385 17.2811L5.38086 17.5977ZM6.20312 16.3594L6.69864 16.4262L6.69866 16.426L6.20312 16.3594ZM5.81836 15.4307L6.12167 15.0332L6.12154 15.0331L5.81836 15.4307ZM4.36133 15.1357L4.31165 15.6333L4.36133 15.1357ZM3.54199 14.9834L3.31287 15.4278L3.31292 15.4278L3.54199 14.9834ZM3.07031 14.4629L2.60533 14.6467L2.60541 14.6469L3.07031 14.4629ZM3 13.6318H2.5H3ZM3 12.3682H2.5H3ZM3.07031 11.5371L2.60537 11.3532L2.60536 11.3532L3.07031 11.5371ZM3.54102 11.0166L3.31173 10.5723L3.31149 10.5724L3.54102 11.0166ZM4.36133 10.8633L4.31153 10.3658L4.36133 10.8633ZM5.81836 10.5684L6.12169 10.9658L6.12177 10.9658L5.81836 10.5684ZM6.20312 9.64062L6.69869 9.57415L6.69866 9.57398L6.20312 9.64062ZM5.38086 8.40137L4.9939 8.71801V8.71801L5.38086 8.40137ZM4.90918 7.71387L4.43284 7.86586L4.43289 7.86601L4.90918 7.71387ZM4.94434 7.0127L4.48554 6.81394L4.4855 6.81402L4.94434 7.0127ZM7.0127 4.94434L6.81395 4.48553L6.81394 4.48554L7.0127 4.94434ZM7.71387 4.90918L7.86591 4.43286L7.86583 4.43283L7.71387 4.90918ZM8.40234 5.38086L8.08578 5.76788L8.40234 5.38086ZM9.64062 6.20215L9.57405 6.6977L9.57412 6.69771L9.64062 6.20215ZM10.5684 5.81738L10.9658 6.12071L10.9659 6.12062L10.5684 5.81738ZM10.8633 4.36133L11.3608 4.41114L10.8633 4.36133ZM11.0166 3.54102L10.5724 3.31149L10.5723 3.31175L11.0166 3.54102ZM11.5371 3.07031L11.3533 2.60534L11.3532 2.60537L11.5371 3.07031ZM13.6318 3V3.5C13.8562 3.5 14.0002 3.50033 14.1108 3.50777C14.2164 3.51487 14.2579 3.52693 14.2791 3.53529L14.4629 3.07031L14.6467 2.60533C14.4907 2.54366 14.3346 2.52056 14.1779 2.51002C14.0261 2.49981 13.8432 2.5 13.6318 2.5V3ZM14.4629 3.07031L14.2789 3.53522C14.3909 3.57958 14.4834 3.66326 14.539 3.77112L14.9834 3.54199L15.4278 3.31287C15.2617 2.99073 14.9846 2.7391 14.6469 2.60541L14.4629 3.07031ZM14.9834 3.54199L14.539 3.77107C14.5494 3.79127 14.5655 3.83126 14.583 3.93549C14.6013 4.04465 14.6159 4.18779 14.6382 4.41101L15.1357 4.36133L15.6333 4.31165C15.6123 4.10143 15.5943 3.91955 15.5691 3.76971C15.5431 3.61495 15.5047 3.46199 15.4278 3.31292L14.9834 3.54199ZM15.1357 4.36133L14.6382 4.41101C14.6784 4.81309 14.7111 5.14429 14.7574 5.40175C14.8029 5.65434 14.8727 5.91118 15.0331 6.12154L15.4307 5.81836L15.8283 5.51518C15.8169 5.50034 15.7802 5.43907 15.7416 5.22464C15.7039 5.01509 15.6751 4.73037 15.6333 4.31165L15.1357 4.36133ZM15.4307 5.81836L15.0332 6.12167C15.3599 6.54993 15.8918 6.7705 16.426 6.69866L16.3594 6.20312L16.2927 5.70759C16.1148 5.73151 15.9372 5.65794 15.8282 5.51505L15.4307 5.81836ZM16.3594 6.20312L16.4262 6.69864C16.6887 6.66324 16.9196 6.5305 17.13 6.38402C17.3444 6.23472 17.6017 6.02356 17.9142 5.76787L17.5977 5.38086L17.2811 4.99385C16.9551 5.26053 16.7335 5.44158 16.5586 5.56335C16.3796 5.68796 16.3107 5.70516 16.2925 5.70761L16.3594 6.20312ZM17.5977 5.38086L17.9142 5.76787C18.2861 5.46368 18.3696 5.40738 18.4381 5.38551L18.2861 4.90918L18.1341 4.43285C17.8395 4.52688 17.5845 4.74567 17.2811 4.99385L17.5977 5.38086ZM18.2861 4.90918L18.4381 5.38553C18.5531 5.34884 18.6775 5.35505 18.7886 5.40316L18.9873 4.94434L19.186 4.48551C18.8534 4.34147 18.4798 4.32256 18.1342 4.43283L18.2861 4.90918ZM18.9873 4.94434L18.7886 5.40314C18.8095 5.41222 18.8474 5.43307 18.9272 5.50272C19.0106 5.57562 19.1127 5.67728 19.2714 5.83598L19.625 5.48242L19.9786 5.12887C19.829 4.97927 19.6997 4.84976 19.5851 4.74964C19.4668 4.64626 19.34 4.55222 19.1861 4.48554L18.9873 4.94434ZM19.625 5.48242L19.2714 5.83598L20.164 6.72855L20.5176 6.375L20.8711 6.02145L19.9786 5.12887L19.625 5.48242ZM20.5176 6.375L20.164 6.72855C20.3227 6.8872 20.4243 6.98937 20.4973 7.07283C20.5669 7.1526 20.5878 7.19054 20.5969 7.21147L21.0557 7.0127L21.5145 6.81392C21.4478 6.66002 21.3537 6.53323 21.2503 6.41491C21.1502 6.30029 21.0207 6.17103 20.8711 6.02145L20.5176 6.375ZM21.0557 7.0127L20.5968 7.2113C20.645 7.32255 20.6511 7.44702 20.6145 7.56184L21.0908 7.71387L21.5671 7.8659C21.6775 7.52012 21.6584 7.14655 21.5145 6.81409L21.0557 7.0127ZM21.0908 7.71387L20.6146 7.56162C20.6078 7.58283 20.591 7.6223 20.5293 7.7087C20.4648 7.79912 20.3736 7.91074 20.2313 8.08466L20.6182 8.40137L21.0051 8.71807C21.1388 8.55473 21.255 8.41334 21.3432 8.28969C21.4344 8.16202 21.5158 8.02638 21.5671 7.86612L21.0908 7.71387ZM20.6182 8.40137L20.2313 8.08466C19.9753 8.39732 19.7645 8.65454 19.6153 8.86931C19.4688 9.08009 19.3369 9.31073 19.3014 9.57247L19.7969 9.63965L20.2923 9.70682C20.2949 9.68797 20.3124 9.61852 20.4366 9.43983C20.5579 9.26513 20.7387 9.04351 21.0051 8.71807L20.6182 8.40137ZM19.7969 9.63965L19.3014 9.57288C19.2293 10.1073 19.45 10.6391 19.8783 10.9659L20.1816 10.5684L20.4849 10.1709C20.3419 10.0617 20.2684 9.88422 20.2924 9.70642L19.7969 9.63965ZM20.1816 10.5684L19.8784 10.9659C20.0888 11.1264 20.3457 11.1961 20.5982 11.2415C20.8556 11.2878 21.1868 11.3206 21.5889 11.3608L21.6387 10.8633L21.6885 10.3658C21.2695 10.3238 20.9848 10.295 20.7752 10.2573C20.5608 10.2187 20.4996 10.1821 20.4848 10.1708L20.1816 10.5684ZM21.6387 10.8633L21.5889 11.3608C22.0665 11.4086 22.1658 11.4279 22.2297 11.4609L22.459 11.0166L22.6883 10.5723C22.4135 10.4305 22.0783 10.4048 21.6885 10.3658L21.6387 10.8633ZM22.459 11.0166L22.2295 11.4608C22.3367 11.5162 22.4203 11.6086 22.4648 11.7211L22.9297 11.5371L23.3946 11.3532C23.2613 11.0162 23.0106 10.7388 22.6885 10.5724L22.459 11.0166ZM22.9297 11.5371L22.4647 11.721C22.4731 11.7422 22.4852 11.7836 22.4923 11.8892C22.4997 11.9997 22.5 12.1437 22.5 12.3682H23H23.5C23.5 12.1567 23.5002 11.9738 23.49 11.8221C23.4795 11.6654 23.4564 11.5092 23.3946 11.3532L22.9297 11.5371ZM23 12.3682H22.5V13.6318H23H23.5V12.3682H23ZM23 13.6318H22.5C22.5 13.8561 22.4997 14.0002 22.4922 14.1107C22.4851 14.2164 22.473 14.258 22.4647 14.2791L22.9297 14.4629L23.3947 14.6467C23.4563 14.4907 23.4794 14.3346 23.49 14.1779C23.5002 14.0261 23.5 13.8432 23.5 13.6318H23ZM22.9297 14.4629L22.4648 14.2789C22.4204 14.391 22.3368 14.4834 22.2289 14.539L22.458 14.9834L22.6871 15.4278C23.0093 15.2617 23.2609 14.9846 23.3946 14.6469L22.9297 14.4629ZM22.458 14.9834L22.2289 14.539C22.2087 14.5494 22.1688 14.5654 22.0645 14.583C21.9554 14.6013 21.8122 14.6159 21.589 14.6382L21.6387 15.1357L21.6884 15.6333C21.8986 15.6123 22.0805 15.5943 22.2303 15.5691C22.3851 15.5431 22.538 15.5047 22.6871 15.4278L22.458 14.9834ZM21.6387 15.1357L21.589 14.6382C21.187 14.6784 20.856 14.7111 20.5987 14.7575C20.3462 14.803 20.0897 14.8728 19.8795 15.033L20.1826 15.4307L20.4857 15.8283C20.5007 15.8169 20.562 15.7802 20.776 15.7416C20.9853 15.7039 21.2698 15.6751 21.6884 15.6333L21.6387 15.1357ZM20.1826 15.4307L19.8795 15.033C19.4507 15.3599 19.2303 15.8917 19.3023 16.4262L19.7979 16.3594L20.2934 16.2926C20.2694 16.1145 20.3428 15.9373 20.4857 15.8283L20.1826 15.4307ZM19.7979 16.3594L19.3023 16.4262C19.3377 16.6882 19.4698 16.919 19.6162 17.1297C19.7654 17.3444 19.9763 17.6016 20.2322 17.9143L20.6191 17.5977L21.0061 17.281C20.7397 16.9554 20.5588 16.7338 20.4374 16.559C20.3132 16.3803 20.2959 16.3111 20.2934 16.2926L19.7979 16.3594ZM20.6191 17.5977L20.2322 17.9143C20.3742 18.0879 20.4651 18.1993 20.5295 18.2896C20.5909 18.3757 20.6078 18.4153 20.6147 18.4367L21.0908 18.2842L21.567 18.1317C21.5158 17.9719 21.4346 17.8365 21.3437 17.709C21.2556 17.5854 21.1397 17.4442 21.0061 17.281L20.6191 17.5977ZM21.0908 18.2842L20.6146 18.4364C20.6513 18.5512 20.6451 18.6762 20.5968 18.7877L21.0557 18.9863L21.5145 19.185C21.6585 18.8524 21.6777 18.478 21.5671 18.1319L21.0908 18.2842ZM21.0557 18.9863L20.5969 18.7875C20.5878 18.8084 20.5669 18.8464 20.4972 18.9262C20.4243 19.0097 20.3226 19.1119 20.164 19.2705L20.5176 19.624L20.8711 19.9776C21.0207 19.828 21.1501 19.6988 21.2503 19.5841C21.3536 19.4658 21.4477 19.339 21.5144 19.1852L21.0557 18.9863ZM20.5176 19.624L20.164 19.2705L19.2714 20.163L19.625 20.5166L19.9786 20.8702L20.8711 19.9776L20.5176 19.624ZM19.625 20.5166L19.2714 20.163C19.1127 20.3217 19.0106 20.4234 18.9272 20.4963C18.8474 20.566 18.8095 20.5868 18.7886 20.5959L18.9873 21.0547L19.1861 21.5135C19.34 21.4468 19.4668 21.3528 19.5851 21.2494C19.6997 21.1493 19.829 21.0198 19.9786 20.8702L19.625 20.5166ZM18.9873 21.0547L18.7886 20.5959C18.6775 20.644 18.5531 20.6502 18.4381 20.6135L18.2861 21.0898L18.1342 21.5662C18.4798 21.6765 18.8534 21.6576 19.186 21.5135L18.9873 21.0547ZM18.2861 21.0898L18.4381 20.6135C18.3696 20.5916 18.286 20.5353 17.9142 20.2312L17.5977 20.6182L17.2811 21.0052C17.5844 21.2533 17.8395 21.4721 18.1341 21.5662L18.2861 21.0898ZM17.5977 20.6182L17.9142 20.2312C17.6015 19.9753 17.344 19.7641 17.1293 19.6147C16.9186 19.4682 16.6875 19.3356 16.4249 19.3003L16.3584 19.7959L16.2919 20.2915C16.3102 20.2939 16.3792 20.3111 16.5583 20.4357C16.7333 20.5574 16.955 20.7385 17.2811 21.0052L17.5977 20.6182ZM16.3584 19.7959L16.4246 19.3003C15.8909 19.229 15.3597 19.4494 15.0332 19.8774L15.4307 20.1807L15.8282 20.484C15.9371 20.3412 16.1144 20.2677 16.2922 20.2915L16.3584 19.7959ZM15.4307 20.1807L15.0332 19.8774C14.8726 20.0878 14.8028 20.3446 14.7574 20.5972C14.7111 20.8546 14.6784 21.1859 14.6382 21.588L15.1357 21.6377L15.6333 21.6874C15.6751 21.2685 15.7039 20.9838 15.7416 20.7743C15.7801 20.56 15.8168 20.4988 15.8282 20.484L15.4307 20.1807ZM15.1357 21.6377L14.6382 21.588C14.6159 21.8114 14.6013 21.9548 14.583 22.0642C14.5654 22.1688 14.5493 22.2088 14.5389 22.229L14.9834 22.458L15.4279 22.687C15.5048 22.5378 15.5432 22.3846 15.5692 22.2297C15.5943 22.0798 15.6123 21.8977 15.6333 21.6874L15.1357 21.6377ZM14.9834 22.458L14.539 22.2288C14.4834 22.3367 14.3908 22.4205 14.2789 22.4648L14.4629 22.9297L14.6469 23.3946C14.9846 23.2609 15.2617 23.0091 15.4278 22.6872L14.9834 22.458ZM14.4629 22.9297L14.2789 22.4648C14.2579 22.4731 14.2164 22.4852 14.1105 22.4923C13.9997 22.4997 13.8554 22.5 13.6309 22.5V23V23.5C13.8424 23.5 14.0255 23.5002 14.1774 23.49C14.3342 23.4795 14.4906 23.4564 14.6468 23.3946L14.4629 22.9297ZM13.6309 23V22.5H12.3682V23V23.5H13.6309V23ZM12.3682 23V22.5C12.1437 22.5 11.9997 22.4997 11.8892 22.4923C11.7836 22.4852 11.7422 22.4731 11.721 22.4647L11.5371 22.9297L11.3532 23.3946C11.5092 23.4564 11.6654 23.4795 11.8221 23.49C11.9738 23.5002 12.1567 23.5 12.3682 23.5V23ZM11.5371 22.9297L11.7211 22.4648C11.6086 22.4203 11.5162 22.3367 11.4608 22.2295L11.0166 22.459L10.5724 22.6885C10.7388 23.0106 11.0162 23.2613 11.3532 23.3946L11.5371 22.9297ZM11.0166 22.459L11.4609 22.2297C11.4279 22.1658 11.4086 22.0665 11.3608 21.5889L10.8633 21.6387L10.3658 21.6885C10.4048 22.0783 10.4305 22.4135 10.5723 22.6883L11.0166 22.459ZM10.8633 21.6387L11.3608 21.5889C11.3206 21.1868 11.2878 20.8556 11.2415 20.5982C11.1961 20.3457 11.1264 20.0888 10.9659 19.8784L10.5684 20.1816L10.1708 20.4848C10.1821 20.4996 10.2187 20.5608 10.2573 20.7752C10.295 20.9848 10.3238 21.2695 10.3658 21.6885L10.8633 21.6387ZM10.5684 20.1816L10.9659 19.8783C10.6391 19.45 10.1073 19.2293 9.57288 19.3014L9.63965 19.7969L9.70642 20.2924C9.88422 20.2684 10.0617 20.3419 10.1709 20.4849L10.5684 20.1816ZM9.63965 19.7969L9.57247 19.3014C9.31073 19.3369 9.08009 19.4688 8.86931 19.6153C8.65454 19.7645 8.39732 19.9753 8.08466 20.2313L8.40137 20.6182L8.71807 21.0051C9.04351 20.7387 9.26513 20.5579 9.43983 20.4366C9.61852 20.3124 9.68797 20.2949 9.70682 20.2923L9.63965 19.7969ZM8.40137 20.6182L8.08466 20.2313C7.91074 20.3736 7.79912 20.4648 7.7087 20.5293C7.6223 20.591 7.58283 20.6078 7.56162 20.6146L7.71387 21.0908L7.86612 21.5671C8.02638 21.5158 8.16202 21.4344 8.28969 21.3432C8.41334 21.255 8.55473 21.1388 8.71807 21.0051L8.40137 20.6182ZM7.71387 21.0908L7.56184 20.6145C7.44702 20.6511 7.32255 20.645 7.2113 20.5968L7.0127 21.0557L6.81409 21.5145C7.14655 21.6584 7.52012 21.6775 7.8659 21.5671L7.71387 21.0908ZM7.0127 21.0557L7.21147 20.5969C7.19054 20.5878 7.1526 20.5669 7.07283 20.4973C6.98937 20.4243 6.8872 20.3227 6.72855 20.164L6.375 20.5176L6.02145 20.8711C6.17103 21.0207 6.30029 21.1502 6.41491 21.2503C6.53323 21.3537 6.66002 21.4478 6.81392 21.5145L7.0127 21.0557ZM6.375 20.5176L6.72855 20.164L5.83598 19.2714L5.48242 19.625L5.12887 19.9786L6.02145 20.8711L6.375 20.5176ZM5.48242 19.625L5.83598 19.2714C5.67728 19.1127 5.57562 19.0106 5.50272 18.9272C5.43307 18.8474 5.41222 18.8095 5.40314 18.7886L4.94434 18.9873L4.48554 19.1861C4.55222 19.34 4.64626 19.4668 4.74964 19.5851C4.84976 19.6997 4.97927 19.829 5.12887 19.9786L5.48242 19.625ZM4.94434 18.9873L5.40316 18.7886C5.35505 18.6775 5.34884 18.5531 5.38553 18.4381L4.90918 18.2861L4.43283 18.1342C4.32256 18.4798 4.34147 18.8534 4.48551 19.186L4.94434 18.9873ZM4.90918 18.2861L5.38551 18.4381C5.40738 18.3696 5.46368 18.2861 5.76787 17.9142L5.38086 17.5977L4.99385 17.2811C4.74567 17.5845 4.52688 17.8395 4.43285 18.1341L4.90918 18.2861ZM5.38086 17.5977L5.76787 17.9142C6.02356 17.6017 6.23472 17.3444 6.38402 17.13C6.5305 16.9196 6.66324 16.6887 6.69864 16.4262L6.20312 16.3594L5.70761 16.2925C5.70516 16.3107 5.68796 16.3796 5.56335 16.5586C5.44158 16.7335 5.26053 16.9551 4.99385 17.2811L5.38086 17.5977ZM6.20312 16.3594L6.69866 16.426C6.7705 15.8918 6.54993 15.3599 6.12167 15.0332L5.81836 15.4307L5.51505 15.8282C5.65794 15.9372 5.73151 16.1148 5.70759 16.2927L6.20312 16.3594ZM5.81836 15.4307L6.12154 15.0331C5.91118 14.8727 5.65434 14.8029 5.40175 14.7574C5.14429 14.7111 4.81309 14.6784 4.41101 14.6382L4.36133 15.1357L4.31165 15.6333C4.73037 15.6751 5.01509 15.7039 5.22464 15.7416C5.43907 15.7802 5.50034 15.8169 5.51518 15.8283L5.81836 15.4307ZM4.36133 15.1357L4.41101 14.6382C4.18779 14.6159 4.04465 14.6013 3.93549 14.583C3.83126 14.5655 3.79127 14.5494 3.77107 14.539L3.54199 14.9834L3.31292 15.4278C3.46199 15.5047 3.61495 15.5431 3.76971 15.5691C3.91955 15.5943 4.10143 15.6123 4.31165 15.6333L4.36133 15.1357ZM3.54199 14.9834L3.77112 14.539C3.66326 14.4834 3.57958 14.3909 3.53522 14.2789L3.07031 14.4629L2.60541 14.6469C2.7391 14.9846 2.99073 15.2617 3.31287 15.4278L3.54199 14.9834ZM3.07031 14.4629L3.53529 14.2791C3.52693 14.2579 3.51487 14.2164 3.50777 14.1108C3.50033 14.0002 3.5 13.8562 3.5 13.6318H3H2.5C2.5 13.8432 2.49981 14.0261 2.51002 14.1779C2.52056 14.3346 2.54366 14.4907 2.60533 14.6467L3.07031 14.4629ZM3 13.6318H3.5V12.3682H3H2.5V13.6318H3ZM3 12.3682H3.5C3.5 12.1437 3.50032 11.9997 3.50775 11.8892C3.51485 11.7836 3.5269 11.7422 3.53527 11.721L3.07031 11.5371L2.60536 11.3532C2.54364 11.5093 2.52054 11.6654 2.51 11.8221C2.4998 11.9738 2.5 12.1567 2.5 12.3682H3ZM3.07031 11.5371L3.53525 11.721C3.57974 11.6086 3.66329 11.5162 3.77054 11.4608L3.54102 11.0166L3.31149 10.5724C2.98938 10.7388 2.73868 11.0162 2.60537 11.3532L3.07031 11.5371ZM3.54102 11.0166L3.7703 11.4609C3.83421 11.428 3.93351 11.4086 4.41113 11.3608L4.36133 10.8633L4.31153 10.3658C3.92169 10.4048 3.58649 10.4305 3.31173 10.5723L3.54102 11.0166ZM4.36133 10.8633L4.41113 11.3608C4.81319 11.3206 5.14441 11.2878 5.40176 11.2416C5.65429 11.1962 5.91123 11.1265 6.12169 10.9658L5.81836 10.5684L5.51503 10.1709C5.5003 10.1821 5.43924 10.2188 5.22481 10.2573C5.01521 10.295 4.73051 10.3238 4.31153 10.3658L4.36133 10.8633ZM5.81836 10.5684L6.12177 10.9658C6.54941 10.6393 6.77035 10.1084 6.69869 9.57415L6.20312 9.64062L5.70756 9.7071C5.73136 9.88451 5.65803 10.0617 5.51495 10.1709L5.81836 10.5684ZM6.20312 9.64062L6.69866 9.57398C6.66337 9.31155 6.53079 9.08041 6.38427 8.8697C6.23489 8.65489 6.02371 8.39745 5.76782 8.08473L5.38086 8.40137L4.9939 8.71801C5.2605 9.04383 5.44158 9.26564 5.56327 9.44063C5.68781 9.61973 5.70512 9.68895 5.70759 9.70727L6.20312 9.64062ZM5.38086 8.40137L5.76782 8.08473C5.62581 7.91118 5.53489 7.79954 5.47068 7.70932C5.40932 7.62312 5.39239 7.58338 5.38547 7.56172L4.90918 7.71387L4.43289 7.86601C4.48393 8.02579 4.56492 8.16126 4.65596 8.28918C4.74414 8.41307 4.86007 8.55446 4.9939 8.71801L5.38086 8.40137ZM4.90918 7.71387L5.38552 7.56187C5.34884 7.44693 5.35504 7.32252 5.40317 7.21137L4.94434 7.0127L4.4855 6.81402C4.34149 7.1466 4.32253 7.52015 4.43284 7.86586L4.90918 7.71387ZM4.94434 7.0127L5.40313 7.21145C5.4122 7.19052 5.43306 7.15259 5.50274 7.07283C5.57565 6.98938 5.67731 6.88721 5.83598 6.72855L5.48242 6.375L5.12887 6.02145C4.97928 6.17103 4.84978 6.30029 4.74965 6.41491C4.64628 6.53323 4.55222 6.66002 4.48554 6.81394L4.94434 7.0127ZM5.48242 6.375L5.83598 6.72855L6.72855 5.83598L6.375 5.48242L6.02145 5.12887L5.12887 6.02145L5.48242 6.375ZM6.375 5.48242L6.72855 5.83598C6.88722 5.6773 6.98938 5.57564 7.07283 5.50273C7.15258 5.43306 7.19051 5.41221 7.21145 5.40314L7.0127 4.94434L6.81394 4.48554C6.66002 4.55222 6.53323 4.64628 6.41491 4.74965C6.30029 4.84978 6.17103 4.97928 6.02145 5.12887L6.375 5.48242ZM7.0127 4.94434L7.21144 5.40314C7.32248 5.35504 7.44685 5.34882 7.56191 5.38553L7.71387 4.90918L7.86583 4.43283C7.52019 4.32257 7.14665 4.34142 6.81395 4.48553L7.0127 4.94434ZM7.71387 4.90918L7.56183 5.3855C7.63033 5.40737 7.71406 5.46383 8.08578 5.76788L8.40234 5.38086L8.71891 4.99384C8.41567 4.7458 8.1605 4.52689 7.86591 4.43286L7.71387 4.90918ZM8.40234 5.38086L8.08578 5.76788C8.3984 6.0236 8.65564 6.23456 8.87024 6.38374C9.08083 6.53014 9.31172 6.66245 9.57405 6.6977L9.64062 6.20215L9.7072 5.7066C9.68883 5.70413 9.61979 5.68691 9.44103 5.56264C9.26627 5.44116 9.04471 5.26033 8.71891 4.99384L8.40234 5.38086ZM9.64062 6.20215L9.57412 6.69771C10.1084 6.76941 10.6393 6.54861 10.9658 6.12071L10.5684 5.81738L10.1709 5.51406C10.0617 5.65713 9.88468 5.73042 9.70713 5.70659L9.64062 6.20215ZM10.5684 5.81738L10.9659 6.12062C11.1263 5.91028 11.1961 5.65368 11.2415 5.40123C11.2878 5.14403 11.3206 4.81305 11.3608 4.41114L10.8633 4.36133L10.3658 4.31152C10.3238 4.73027 10.295 5.01471 10.2573 5.22408C10.2188 5.43819 10.1821 5.49928 10.1708 5.51415L10.5684 5.81738ZM10.8633 4.36133L11.3608 4.41114C11.4086 3.93355 11.428 3.83419 11.4609 3.77028L11.0166 3.54102L10.5723 3.31175C10.4305 3.58649 10.4048 3.92171 10.3658 4.31152L10.8633 4.36133ZM11.0166 3.54102L11.4608 3.77054C11.5162 3.66328 11.6086 3.57974 11.721 3.53525L11.5371 3.07031L11.3532 2.60537C11.0162 2.73868 10.7388 2.98938 10.5724 3.31149L11.0166 3.54102ZM11.5371 3.07031L11.721 3.53528C11.7421 3.52691 11.7836 3.51486 11.8892 3.50776C11.9997 3.50032 12.1437 3.5 12.3682 3.5V3V2.5C12.1567 2.5 11.9738 2.4998 11.8221 2.51001C11.6654 2.52055 11.5093 2.54365 11.3533 2.60534L11.5371 3.07031ZM12.3682 3V3.5H13.6318V3V2.5H12.3682V3ZM13 9V8.5C10.5147 8.5 8.5 10.5147 8.5 13H9H9.5C9.5 11.067 11.067 9.5 13 9.5V9ZM9 13H8.5C8.5 15.4853 10.5147 17.5 13 17.5V17V16.5C11.067 16.5 9.5 14.933 9.5 13H9ZM13 17V17.5C15.4853 17.5 17.5 15.4853 17.5 13H17H16.5C16.5 14.933 14.933 16.5 13 16.5V17ZM17 13H17.5C17.5 10.5147 15.4853 8.5 13 8.5V9V9.5C14.933 9.5 16.5 11.067 16.5 13H17Z" fill="#222222"/>
</svg>
